<svg width="64" height="64" viewBox="0 0 64 64" fill="none" xmlns="http://www.w3.org/2000/svg">
  <defs>
    <linearGradient id="gradient" x1="0%" y1="0%" x2="100%" y2="100%">
      <stop offset="0%" style="stop-color:#FF69B4;stop-opacity:1" />
      <stop offset="100%" style="stop-color:#FF8C00;stop-opacity:1" />
    </linearGradient>
  </defs>
  <path d="M20 10 Q10 10 10 20 L10 44 Q10 54 20 54 L32 54 L32 44 L20 44 Q16 44 16 40 L16 24 Q16 20 20 20 L28 20 L28 10 Z M44 10 L44 20 L52 20 Q56 20 56 24 L56 40 Q56 44 52 44 L44 44 L44 54 L52 54 Q62 54 62 44 L62 20 Q62 10 52 10 Z M38 48 L42 54 L46 48 Z" fill="url(#gradient)"/>
</svg>
